<mxfile host="app.diagrams.net" modified="2023-11-08T20:24:05.889Z" agent="Mozilla/5.0 (Windows NT 10.0; Win64; x64) AppleWebKit/537.36 (KHTML, like Gecko) Chrome/118.0.0.0 Safari/537.36" etag="hI_xvz8aqlYn4XHDnYFc" version="22.0.8" type="device">
  <diagram name="Página-1" id="3Ddwbiodmk1YmPRh9fEe">
    <mxGraphModel dx="1050" dy="541" grid="1" gridSize="10" guides="1" tooltips="1" connect="1" arrows="1" fold="1" page="1" pageScale="1" pageWidth="827" pageHeight="1169" math="0" shadow="0">
      <root>
        <mxCell id="0" />
        <mxCell id="1" parent="0" />
        <mxCell id="vWxWDQfy94Ryybp1UH_U-1" value="&lt;font style=&quot;font-size: 20px;&quot;&gt;&lt;b&gt;A&lt;/b&gt;&lt;/font&gt;" style="rounded=0;whiteSpace=wrap;html=1;fillColor=#d5e8d4;strokeColor=#82b366;" vertex="1" parent="1">
          <mxGeometry x="60" y="85" width="50" height="50" as="geometry" />
        </mxCell>
        <mxCell id="vWxWDQfy94Ryybp1UH_U-2" value="&lt;font size=&quot;1&quot; style=&quot;&quot;&gt;&lt;b style=&quot;font-size: 20px;&quot;&gt;Relaciones Binarias:&lt;/b&gt;&lt;/font&gt;" style="text;strokeColor=none;fillColor=none;align=left;verticalAlign=middle;spacingLeft=4;spacingRight=4;overflow=hidden;points=[[0,0.5],[1,0.5]];portConstraint=eastwest;rotatable=0;whiteSpace=wrap;html=1;" vertex="1" parent="1">
          <mxGeometry x="60" y="10" width="230" height="30" as="geometry" />
        </mxCell>
        <mxCell id="vWxWDQfy94Ryybp1UH_U-3" value="&lt;span style=&quot;font-size: 20px;&quot;&gt;&lt;b&gt;B&lt;/b&gt;&lt;/span&gt;" style="rounded=0;whiteSpace=wrap;html=1;fillColor=#f8cecc;strokeColor=#b85450;" vertex="1" parent="1">
          <mxGeometry x="250" y="85" width="50" height="50" as="geometry" />
        </mxCell>
        <mxCell id="vWxWDQfy94Ryybp1UH_U-4" value="&lt;font style=&quot;font-size: 20px;&quot;&gt;&lt;b&gt;R&lt;/b&gt;&lt;/font&gt;" style="shape=rhombus;perimeter=rhombusPerimeter;whiteSpace=wrap;html=1;align=center;fillColor=#f5f5f5;strokeColor=#666666;fontColor=#333333;" vertex="1" parent="1">
          <mxGeometry x="150" y="80" width="70" height="60" as="geometry" />
        </mxCell>
        <mxCell id="vWxWDQfy94Ryybp1UH_U-7" value="" style="endArrow=none;html=1;rounded=0;exitX=1;exitY=0.5;exitDx=0;exitDy=0;entryX=0;entryY=0.5;entryDx=0;entryDy=0;" edge="1" parent="1" source="vWxWDQfy94Ryybp1UH_U-4" target="vWxWDQfy94Ryybp1UH_U-3">
          <mxGeometry relative="1" as="geometry">
            <mxPoint x="330" y="305" as="sourcePoint" />
            <mxPoint x="490" y="305" as="targetPoint" />
          </mxGeometry>
        </mxCell>
        <mxCell id="vWxWDQfy94Ryybp1UH_U-8" value="N" style="resizable=0;html=1;whiteSpace=wrap;align=right;verticalAlign=bottom;" connectable="0" vertex="1" parent="vWxWDQfy94Ryybp1UH_U-7">
          <mxGeometry x="1" relative="1" as="geometry" />
        </mxCell>
        <mxCell id="vWxWDQfy94Ryybp1UH_U-9" value="" style="endArrow=none;html=1;rounded=0;exitX=1;exitY=0.5;exitDx=0;exitDy=0;entryX=0;entryY=0.5;entryDx=0;entryDy=0;" edge="1" parent="1" source="vWxWDQfy94Ryybp1UH_U-1" target="vWxWDQfy94Ryybp1UH_U-4">
          <mxGeometry relative="1" as="geometry">
            <mxPoint x="230" y="120" as="sourcePoint" />
            <mxPoint x="260" y="120" as="targetPoint" />
          </mxGeometry>
        </mxCell>
        <mxCell id="vWxWDQfy94Ryybp1UH_U-10" value="N" style="resizable=0;html=1;whiteSpace=wrap;align=right;verticalAlign=bottom;" connectable="0" vertex="1" parent="vWxWDQfy94Ryybp1UH_U-9">
          <mxGeometry x="1" relative="1" as="geometry" />
        </mxCell>
        <mxCell id="vWxWDQfy94Ryybp1UH_U-11" value="&lt;b style=&quot;border-color: var(--border-color); font-size: 14px;&quot;&gt;&lt;font color=&quot;#9933ff&quot;&gt;&lt;b style=&quot;border-color: var(--border-color);&quot;&gt;A = &lt;u&gt;a0&lt;/u&gt; + ...&lt;br&gt;&lt;/b&gt;B = &lt;u&gt;b0 &lt;/u&gt;+ ...&lt;br&gt;&lt;/font&gt;&lt;/b&gt;&lt;span style=&quot;font-size: 14px;&quot;&gt;&lt;b&gt;&lt;font color=&quot;#9933ff&quot;&gt;R = &lt;u&gt;a0+b0&lt;/u&gt; + ...&lt;br&gt;&lt;span style=&quot;white-space: pre;&quot;&gt;&#x9;&lt;/span&gt;C.Aj: a0, b0&lt;/font&gt;&lt;br&gt;&lt;/b&gt;&lt;/span&gt;" style="text;strokeColor=none;fillColor=none;align=left;verticalAlign=middle;spacingLeft=4;spacingRight=4;overflow=hidden;points=[[0,0.5],[1,0.5]];portConstraint=eastwest;rotatable=0;whiteSpace=wrap;html=1;" vertex="1" parent="1">
          <mxGeometry x="61" y="152" width="129" height="80" as="geometry" />
        </mxCell>
        <mxCell id="vWxWDQfy94Ryybp1UH_U-12" value="&lt;font style=&quot;font-size: 20px;&quot;&gt;&lt;b&gt;A&lt;/b&gt;&lt;/font&gt;" style="rounded=0;whiteSpace=wrap;html=1;fillColor=#d5e8d4;strokeColor=#82b366;" vertex="1" parent="1">
          <mxGeometry x="390" y="90" width="50" height="50" as="geometry" />
        </mxCell>
        <mxCell id="vWxWDQfy94Ryybp1UH_U-13" value="&lt;span style=&quot;font-size: 20px;&quot;&gt;&lt;b&gt;B&lt;/b&gt;&lt;/span&gt;" style="rounded=0;whiteSpace=wrap;html=1;fillColor=#f8cecc;strokeColor=#b85450;" vertex="1" parent="1">
          <mxGeometry x="580" y="90" width="50" height="50" as="geometry" />
        </mxCell>
        <mxCell id="vWxWDQfy94Ryybp1UH_U-14" value="&lt;font style=&quot;font-size: 20px;&quot;&gt;&lt;b&gt;R&lt;/b&gt;&lt;/font&gt;" style="shape=rhombus;perimeter=rhombusPerimeter;whiteSpace=wrap;html=1;align=center;fillColor=#f5f5f5;strokeColor=#666666;fontColor=#333333;" vertex="1" parent="1">
          <mxGeometry x="480" y="85" width="70" height="60" as="geometry" />
        </mxCell>
        <mxCell id="vWxWDQfy94Ryybp1UH_U-19" value="&lt;font color=&quot;#9933ff&quot; style=&quot;font-size: 14px;&quot;&gt;&lt;b&gt;&lt;font style=&quot;font-size: 14px;&quot;&gt;&lt;span style=&quot;border-color: var(--border-color);&quot;&gt;&lt;span style=&quot;border-color: var(--border-color);&quot;&gt;A = &lt;u style=&quot;&quot;&gt;a0&lt;/u&gt; + ...&lt;br&gt;&lt;/span&gt;B = &lt;u style=&quot;&quot;&gt;b0 &lt;/u&gt;+ ...&lt;br&gt;&lt;/span&gt;R = &lt;u&gt;a0+b0&lt;/u&gt; + ...&lt;br&gt;&lt;span style=&quot;white-space: pre;&quot;&gt;&#x9;&lt;/span&gt;C.Aj: a0, b0&lt;br&gt;&lt;span style=&quot;line-height: 107%;&quot;&gt;ASERCIÓN 1:&lt;/span&gt;&lt;span style=&quot;font-family: Arial, sans-serif;&quot;&gt;&amp;nbsp;A&amp;nbsp;&lt;/span&gt;&lt;span style=&quot;font-family: &amp;quot;Cambria Math&amp;quot;, serif;&quot;&gt;⊆&lt;/span&gt;&lt;span style=&quot;line-height: 107%;&quot;&gt;&amp;nbsp;R&lt;br&gt;&lt;/span&gt;&lt;/font&gt;ASERCIÓN 2:&lt;span style=&quot;border-color: var(--border-color); font-family: Arial, sans-serif;&quot;&gt;&amp;nbsp;B&amp;nbsp;&lt;/span&gt;&lt;span style=&quot;border-color: var(--border-color); font-family: &amp;quot;Cambria Math&amp;quot;, serif;&quot;&gt;⊆&lt;/span&gt;&lt;span style=&quot;border-color: var(--border-color); line-height: 16.05px;&quot;&gt;&amp;nbsp;R&lt;/span&gt;&lt;/b&gt;&lt;/font&gt;&lt;span style=&quot;font-size: 14px;&quot;&gt;&lt;b&gt;&lt;br&gt;&lt;/b&gt;&lt;/span&gt;" style="text;strokeColor=none;fillColor=none;align=left;verticalAlign=middle;spacingLeft=4;spacingRight=4;overflow=hidden;points=[[0,0.5],[1,0.5]];portConstraint=eastwest;rotatable=0;whiteSpace=wrap;html=1;" vertex="1" parent="1">
          <mxGeometry x="391" y="152" width="169" height="115" as="geometry" />
        </mxCell>
        <mxCell id="vWxWDQfy94Ryybp1UH_U-20" value="" style="shape=link;html=1;rounded=0;exitX=1;exitY=0.5;exitDx=0;exitDy=0;" edge="1" parent="1" source="vWxWDQfy94Ryybp1UH_U-12" target="vWxWDQfy94Ryybp1UH_U-14">
          <mxGeometry relative="1" as="geometry">
            <mxPoint x="330" y="305" as="sourcePoint" />
            <mxPoint x="490" y="305" as="targetPoint" />
          </mxGeometry>
        </mxCell>
        <mxCell id="vWxWDQfy94Ryybp1UH_U-21" value="N" style="resizable=0;html=1;whiteSpace=wrap;align=right;verticalAlign=bottom;" connectable="0" vertex="1" parent="vWxWDQfy94Ryybp1UH_U-20">
          <mxGeometry x="1" relative="1" as="geometry" />
        </mxCell>
        <mxCell id="vWxWDQfy94Ryybp1UH_U-22" value="" style="shape=link;html=1;rounded=0;exitX=1;exitY=0.5;exitDx=0;exitDy=0;entryX=0;entryY=0.5;entryDx=0;entryDy=0;" edge="1" parent="1" source="vWxWDQfy94Ryybp1UH_U-14" target="vWxWDQfy94Ryybp1UH_U-13">
          <mxGeometry relative="1" as="geometry">
            <mxPoint x="450" y="125" as="sourcePoint" />
            <mxPoint x="490" y="125" as="targetPoint" />
          </mxGeometry>
        </mxCell>
        <mxCell id="vWxWDQfy94Ryybp1UH_U-23" value="N" style="resizable=0;html=1;whiteSpace=wrap;align=right;verticalAlign=bottom;" connectable="0" vertex="1" parent="vWxWDQfy94Ryybp1UH_U-22">
          <mxGeometry x="1" relative="1" as="geometry" />
        </mxCell>
        <mxCell id="vWxWDQfy94Ryybp1UH_U-25" value="&lt;font style=&quot;font-size: 20px;&quot;&gt;&lt;b&gt;A&lt;/b&gt;&lt;/font&gt;" style="rounded=0;whiteSpace=wrap;html=1;fillColor=#d5e8d4;strokeColor=#82b366;" vertex="1" parent="1">
          <mxGeometry x="60" y="300" width="50" height="50" as="geometry" />
        </mxCell>
        <mxCell id="vWxWDQfy94Ryybp1UH_U-26" value="&lt;span style=&quot;font-size: 20px;&quot;&gt;&lt;b&gt;B&lt;/b&gt;&lt;/span&gt;" style="rounded=0;whiteSpace=wrap;html=1;fillColor=#f8cecc;strokeColor=#b85450;" vertex="1" parent="1">
          <mxGeometry x="250" y="300" width="50" height="50" as="geometry" />
        </mxCell>
        <mxCell id="vWxWDQfy94Ryybp1UH_U-27" value="&lt;font style=&quot;font-size: 20px;&quot;&gt;&lt;b&gt;R&lt;/b&gt;&lt;/font&gt;" style="shape=rhombus;perimeter=rhombusPerimeter;whiteSpace=wrap;html=1;align=center;fillColor=#f5f5f5;strokeColor=#666666;fontColor=#333333;" vertex="1" parent="1">
          <mxGeometry x="150" y="295" width="70" height="60" as="geometry" />
        </mxCell>
        <mxCell id="vWxWDQfy94Ryybp1UH_U-28" value="" style="endArrow=none;html=1;rounded=0;exitX=1;exitY=0.5;exitDx=0;exitDy=0;entryX=0;entryY=0.5;entryDx=0;entryDy=0;" edge="1" parent="1" source="vWxWDQfy94Ryybp1UH_U-27" target="vWxWDQfy94Ryybp1UH_U-26">
          <mxGeometry relative="1" as="geometry">
            <mxPoint x="330" y="520" as="sourcePoint" />
            <mxPoint x="490" y="520" as="targetPoint" />
          </mxGeometry>
        </mxCell>
        <mxCell id="vWxWDQfy94Ryybp1UH_U-29" value="N" style="resizable=0;html=1;whiteSpace=wrap;align=right;verticalAlign=bottom;" connectable="0" vertex="1" parent="vWxWDQfy94Ryybp1UH_U-28">
          <mxGeometry x="1" relative="1" as="geometry" />
        </mxCell>
        <mxCell id="vWxWDQfy94Ryybp1UH_U-32" value="&lt;b style=&quot;border-color: var(--border-color); font-size: 14px;&quot;&gt;&lt;font color=&quot;#9933ff&quot;&gt;&lt;b style=&quot;border-color: var(--border-color);&quot;&gt;A = &lt;u&gt;a0&lt;/u&gt; + ...&lt;br&gt;&lt;/b&gt;B = &lt;u&gt;b0 &lt;/u&gt;+ a0 ...&lt;br&gt;&lt;/font&gt;&lt;/b&gt;&lt;span style=&quot;font-size: 14px;&quot;&gt;&lt;b&gt;&lt;font color=&quot;#9933ff&quot;&gt;&lt;span style=&quot;white-space: pre;&quot;&gt;&#x9;&lt;/span&gt;C.Aj: a0&lt;/font&gt;&lt;br&gt;&lt;/b&gt;&lt;/span&gt;" style="text;strokeColor=none;fillColor=none;align=left;verticalAlign=middle;spacingLeft=4;spacingRight=4;overflow=hidden;points=[[0,0.5],[1,0.5]];portConstraint=eastwest;rotatable=0;whiteSpace=wrap;html=1;" vertex="1" parent="1">
          <mxGeometry x="61" y="370" width="119" height="55" as="geometry" />
        </mxCell>
        <mxCell id="vWxWDQfy94Ryybp1UH_U-33" value="&lt;font style=&quot;font-size: 20px;&quot;&gt;&lt;b&gt;A&lt;/b&gt;&lt;/font&gt;" style="rounded=0;whiteSpace=wrap;html=1;fillColor=#d5e8d4;strokeColor=#82b366;" vertex="1" parent="1">
          <mxGeometry x="390" y="305" width="50" height="50" as="geometry" />
        </mxCell>
        <mxCell id="vWxWDQfy94Ryybp1UH_U-34" value="&lt;span style=&quot;font-size: 20px;&quot;&gt;&lt;b&gt;B&lt;/b&gt;&lt;/span&gt;" style="rounded=0;whiteSpace=wrap;html=1;fillColor=#f8cecc;strokeColor=#b85450;" vertex="1" parent="1">
          <mxGeometry x="580" y="305" width="50" height="50" as="geometry" />
        </mxCell>
        <mxCell id="vWxWDQfy94Ryybp1UH_U-35" value="&lt;font style=&quot;font-size: 20px;&quot;&gt;&lt;b&gt;R&lt;/b&gt;&lt;/font&gt;" style="shape=rhombus;perimeter=rhombusPerimeter;whiteSpace=wrap;html=1;align=center;fillColor=#f5f5f5;strokeColor=#666666;fontColor=#333333;" vertex="1" parent="1">
          <mxGeometry x="480" y="300" width="70" height="60" as="geometry" />
        </mxCell>
        <mxCell id="vWxWDQfy94Ryybp1UH_U-36" value="&lt;font style=&quot;font-size: 14px;&quot;&gt;&lt;b&gt;&lt;span style=&quot;border-color: var(--border-color);&quot;&gt;&lt;font style=&quot;border-color: var(--border-color); font-size: 14px;&quot; color=&quot;#9933ff&quot;&gt;&lt;span style=&quot;border-color: var(--border-color);&quot;&gt;A =&amp;nbsp;&lt;u style=&quot;border-color: var(--border-color);&quot;&gt;a0&lt;/u&gt;&amp;nbsp;+ ...&lt;br style=&quot;border-color: var(--border-color);&quot;&gt;&lt;/span&gt;B =&amp;nbsp;&lt;u style=&quot;border-color: var(--border-color);&quot;&gt;b0&amp;nbsp;&lt;/u&gt;+ a0 ...&lt;br style=&quot;border-color: var(--border-color);&quot;&gt;&lt;/font&gt;&lt;/span&gt;&lt;span style=&quot;border-color: var(--border-color);&quot;&gt;&lt;font style=&quot;border-color: var(--border-color); font-size: 14px;&quot; color=&quot;#9933ff&quot;&gt;&lt;span style=&quot;white-space: pre;&quot;&gt;&#x9;&lt;/span&gt;C.Aj: a0&lt;br&gt;&lt;/font&gt;&lt;/span&gt;&lt;span style=&quot;border-color: var(--border-color);&quot;&gt;&lt;/span&gt;&lt;font color=&quot;#9933ff&quot; style=&quot;font-size: 14px;&quot;&gt;&lt;font style=&quot;font-size: 14px;&quot;&gt;&lt;span style=&quot;white-space: pre;&quot;&gt;&#x9;&lt;/span&gt;NotNull: a0&lt;br&gt;&lt;span style=&quot;line-height: 107%;&quot;&gt;ASERCIÓN 1:&lt;/span&gt;&lt;span style=&quot;font-family: Arial, sans-serif;&quot;&gt;&amp;nbsp;A&amp;nbsp;&lt;/span&gt;&lt;span style=&quot;font-family: &amp;quot;Cambria Math&amp;quot;, serif;&quot;&gt;⊆&lt;/span&gt;&lt;span style=&quot;line-height: 107%;&quot;&gt;&amp;nbsp;B&lt;/span&gt;&lt;/font&gt;&lt;/font&gt;&lt;/b&gt;&lt;/font&gt;&lt;span style=&quot;font-size: 14px;&quot;&gt;&lt;b&gt;&lt;br&gt;&lt;/b&gt;&lt;/span&gt;" style="text;strokeColor=none;fillColor=none;align=left;verticalAlign=middle;spacingLeft=4;spacingRight=4;overflow=hidden;points=[[0,0.5],[1,0.5]];portConstraint=eastwest;rotatable=0;whiteSpace=wrap;html=1;" vertex="1" parent="1">
          <mxGeometry x="391" y="368" width="149" height="100" as="geometry" />
        </mxCell>
        <mxCell id="vWxWDQfy94Ryybp1UH_U-39" value="" style="shape=link;html=1;rounded=0;exitX=1;exitY=0.5;exitDx=0;exitDy=0;entryX=0;entryY=0.5;entryDx=0;entryDy=0;" edge="1" parent="1" source="vWxWDQfy94Ryybp1UH_U-35" target="vWxWDQfy94Ryybp1UH_U-34">
          <mxGeometry relative="1" as="geometry">
            <mxPoint x="450" y="340" as="sourcePoint" />
            <mxPoint x="490" y="340" as="targetPoint" />
          </mxGeometry>
        </mxCell>
        <mxCell id="vWxWDQfy94Ryybp1UH_U-40" value="N" style="resizable=0;html=1;whiteSpace=wrap;align=right;verticalAlign=bottom;" connectable="0" vertex="1" parent="vWxWDQfy94Ryybp1UH_U-39">
          <mxGeometry x="1" relative="1" as="geometry" />
        </mxCell>
        <mxCell id="vWxWDQfy94Ryybp1UH_U-41" value="" style="endArrow=none;html=1;rounded=0;exitX=1;exitY=0.5;exitDx=0;exitDy=0;entryX=0;entryY=0.5;entryDx=0;entryDy=0;" edge="1" parent="1" source="vWxWDQfy94Ryybp1UH_U-25" target="vWxWDQfy94Ryybp1UH_U-27">
          <mxGeometry relative="1" as="geometry">
            <mxPoint x="330" y="305" as="sourcePoint" />
            <mxPoint x="490" y="305" as="targetPoint" />
          </mxGeometry>
        </mxCell>
        <mxCell id="vWxWDQfy94Ryybp1UH_U-42" value="1" style="resizable=0;html=1;whiteSpace=wrap;align=right;verticalAlign=bottom;" connectable="0" vertex="1" parent="vWxWDQfy94Ryybp1UH_U-41">
          <mxGeometry x="1" relative="1" as="geometry" />
        </mxCell>
        <mxCell id="vWxWDQfy94Ryybp1UH_U-43" value="" style="shape=link;html=1;rounded=0;entryX=0;entryY=0.5;entryDx=0;entryDy=0;exitX=1;exitY=0.5;exitDx=0;exitDy=0;" edge="1" parent="1" source="vWxWDQfy94Ryybp1UH_U-33" target="vWxWDQfy94Ryybp1UH_U-35">
          <mxGeometry relative="1" as="geometry">
            <mxPoint x="440" y="325" as="sourcePoint" />
            <mxPoint x="490" y="305" as="targetPoint" />
          </mxGeometry>
        </mxCell>
        <mxCell id="vWxWDQfy94Ryybp1UH_U-44" value="1" style="resizable=0;html=1;whiteSpace=wrap;align=right;verticalAlign=bottom;" connectable="0" vertex="1" parent="vWxWDQfy94Ryybp1UH_U-43">
          <mxGeometry x="1" relative="1" as="geometry" />
        </mxCell>
        <mxCell id="vWxWDQfy94Ryybp1UH_U-45" value="&lt;font style=&quot;font-size: 20px;&quot;&gt;&lt;b&gt;A&lt;/b&gt;&lt;/font&gt;" style="rounded=0;whiteSpace=wrap;html=1;fillColor=#d5e8d4;strokeColor=#82b366;" vertex="1" parent="1">
          <mxGeometry x="60" y="483" width="50" height="50" as="geometry" />
        </mxCell>
        <mxCell id="vWxWDQfy94Ryybp1UH_U-46" value="&lt;span style=&quot;font-size: 20px;&quot;&gt;&lt;b&gt;B&lt;/b&gt;&lt;/span&gt;" style="rounded=0;whiteSpace=wrap;html=1;fillColor=#f8cecc;strokeColor=#b85450;" vertex="1" parent="1">
          <mxGeometry x="250" y="483" width="50" height="50" as="geometry" />
        </mxCell>
        <mxCell id="vWxWDQfy94Ryybp1UH_U-47" value="&lt;font style=&quot;font-size: 20px;&quot;&gt;&lt;b&gt;R&lt;/b&gt;&lt;/font&gt;" style="shape=rhombus;perimeter=rhombusPerimeter;whiteSpace=wrap;html=1;align=center;fillColor=#f5f5f5;strokeColor=#666666;fontColor=#333333;" vertex="1" parent="1">
          <mxGeometry x="150" y="478" width="70" height="60" as="geometry" />
        </mxCell>
        <mxCell id="vWxWDQfy94Ryybp1UH_U-50" value="&lt;b style=&quot;border-color: var(--border-color); font-size: 14px;&quot;&gt;&lt;font color=&quot;#9933ff&quot;&gt;&lt;b style=&quot;border-color: var(--border-color);&quot;&gt;A = &lt;u&gt;a0&lt;/u&gt; + ...&lt;br&gt;&lt;/b&gt;B = &lt;u&gt;b0 &lt;/u&gt;+ a0 ...&lt;br&gt;&lt;/font&gt;&lt;/b&gt;&lt;span style=&quot;font-size: 14px;&quot;&gt;&lt;b&gt;&lt;font color=&quot;#9933ff&quot;&gt;&lt;span style=&quot;white-space: pre;&quot;&gt;&#x9;&lt;/span&gt;C.Aj: a0&lt;/font&gt;&lt;br&gt;&lt;/b&gt;&lt;/span&gt;" style="text;strokeColor=none;fillColor=none;align=left;verticalAlign=middle;spacingLeft=4;spacingRight=4;overflow=hidden;points=[[0,0.5],[1,0.5]];portConstraint=eastwest;rotatable=0;whiteSpace=wrap;html=1;" vertex="1" parent="1">
          <mxGeometry x="61" y="553" width="119" height="55" as="geometry" />
        </mxCell>
        <mxCell id="vWxWDQfy94Ryybp1UH_U-51" value="&lt;font style=&quot;font-size: 20px;&quot;&gt;&lt;b&gt;A&lt;/b&gt;&lt;/font&gt;" style="rounded=0;whiteSpace=wrap;html=1;fillColor=#d5e8d4;strokeColor=#82b366;" vertex="1" parent="1">
          <mxGeometry x="390" y="488" width="50" height="50" as="geometry" />
        </mxCell>
        <mxCell id="vWxWDQfy94Ryybp1UH_U-52" value="&lt;span style=&quot;font-size: 20px;&quot;&gt;&lt;b&gt;B&lt;/b&gt;&lt;/span&gt;" style="rounded=0;whiteSpace=wrap;html=1;fillColor=#f8cecc;strokeColor=#b85450;" vertex="1" parent="1">
          <mxGeometry x="580" y="488" width="50" height="50" as="geometry" />
        </mxCell>
        <mxCell id="vWxWDQfy94Ryybp1UH_U-53" value="&lt;font style=&quot;font-size: 20px;&quot;&gt;&lt;b&gt;R&lt;/b&gt;&lt;/font&gt;" style="shape=rhombus;perimeter=rhombusPerimeter;whiteSpace=wrap;html=1;align=center;fillColor=#f5f5f5;strokeColor=#666666;fontColor=#333333;" vertex="1" parent="1">
          <mxGeometry x="480" y="483" width="70" height="60" as="geometry" />
        </mxCell>
        <mxCell id="vWxWDQfy94Ryybp1UH_U-54" value="&lt;font style=&quot;font-size: 14px;&quot;&gt;&lt;b&gt;&lt;span style=&quot;border-color: var(--border-color);&quot;&gt;&lt;span style=&quot;border-color: var(--border-color);&quot;&gt;&lt;font style=&quot;border-color: var(--border-color);&quot; color=&quot;#9933ff&quot;&gt;A = &lt;u style=&quot;&quot;&gt;a0 &lt;/u&gt;+ b0 + ...&lt;br&gt;&lt;span style=&quot;white-space: pre;&quot;&gt;&#x9;&lt;/span&gt;C.Aj: b0&lt;br&gt;&lt;/font&gt;&lt;/span&gt;&lt;font style=&quot;border-color: var(--border-color);&quot; color=&quot;#9933ff&quot;&gt;&lt;font style=&quot;border-color: var(--border-color);&quot;&gt;&lt;span style=&quot;white-space: pre;&quot;&gt;&#x9;&lt;/span&gt;NotNull: b0&lt;/font&gt;&lt;/font&gt;&lt;/span&gt;&lt;span style=&quot;border-color: var(--border-color);&quot;&gt;&lt;font style=&quot;border-color: var(--border-color); font-size: 14px;&quot; color=&quot;#9933ff&quot;&gt;&lt;span style=&quot;border-color: var(--border-color);&quot;&gt;&lt;br style=&quot;border-color: var(--border-color);&quot;&gt;&lt;/span&gt;B =&amp;nbsp;&lt;u style=&quot;border-color: var(--border-color);&quot;&gt;b0&amp;nbsp;&lt;/u&gt;+ ...&lt;/font&gt;&lt;/span&gt;&lt;/b&gt;&lt;font color=&quot;#9933ff&quot; style=&quot;font-weight: bold; font-size: 14px;&quot;&gt;&lt;font style=&quot;font-size: 14px;&quot;&gt;&lt;br&gt;&lt;/font&gt;&lt;/font&gt;&lt;/font&gt;&lt;span style=&quot;font-size: 14px;&quot;&gt;&lt;b&gt;&lt;br&gt;&lt;/b&gt;&lt;/span&gt;" style="text;strokeColor=none;fillColor=none;align=left;verticalAlign=middle;spacingLeft=4;spacingRight=4;overflow=hidden;points=[[0,0.5],[1,0.5]];portConstraint=eastwest;rotatable=0;whiteSpace=wrap;html=1;" vertex="1" parent="1">
          <mxGeometry x="391" y="557" width="159" height="93" as="geometry" />
        </mxCell>
        <mxCell id="vWxWDQfy94Ryybp1UH_U-57" value="" style="endArrow=none;html=1;rounded=0;exitX=1;exitY=0.5;exitDx=0;exitDy=0;entryX=0;entryY=0.5;entryDx=0;entryDy=0;" edge="1" parent="1" source="vWxWDQfy94Ryybp1UH_U-45" target="vWxWDQfy94Ryybp1UH_U-47">
          <mxGeometry relative="1" as="geometry">
            <mxPoint x="330" y="488" as="sourcePoint" />
            <mxPoint x="490" y="488" as="targetPoint" />
          </mxGeometry>
        </mxCell>
        <mxCell id="vWxWDQfy94Ryybp1UH_U-58" value="1" style="resizable=0;html=1;whiteSpace=wrap;align=right;verticalAlign=bottom;" connectable="0" vertex="1" parent="vWxWDQfy94Ryybp1UH_U-57">
          <mxGeometry x="1" relative="1" as="geometry" />
        </mxCell>
        <mxCell id="vWxWDQfy94Ryybp1UH_U-59" value="" style="shape=link;html=1;rounded=0;entryX=0;entryY=0.5;entryDx=0;entryDy=0;exitX=1;exitY=0.5;exitDx=0;exitDy=0;" edge="1" parent="1" source="vWxWDQfy94Ryybp1UH_U-51" target="vWxWDQfy94Ryybp1UH_U-53">
          <mxGeometry relative="1" as="geometry">
            <mxPoint x="440" y="508" as="sourcePoint" />
            <mxPoint x="490" y="488" as="targetPoint" />
          </mxGeometry>
        </mxCell>
        <mxCell id="vWxWDQfy94Ryybp1UH_U-60" value="1" style="resizable=0;html=1;whiteSpace=wrap;align=right;verticalAlign=bottom;" connectable="0" vertex="1" parent="vWxWDQfy94Ryybp1UH_U-59">
          <mxGeometry x="1" relative="1" as="geometry" />
        </mxCell>
        <mxCell id="vWxWDQfy94Ryybp1UH_U-61" value="" style="endArrow=none;html=1;rounded=0;exitX=1;exitY=0.5;exitDx=0;exitDy=0;entryX=0;entryY=0.5;entryDx=0;entryDy=0;" edge="1" parent="1" source="vWxWDQfy94Ryybp1UH_U-47" target="vWxWDQfy94Ryybp1UH_U-46">
          <mxGeometry relative="1" as="geometry">
            <mxPoint x="120" y="518" as="sourcePoint" />
            <mxPoint x="160" y="518" as="targetPoint" />
          </mxGeometry>
        </mxCell>
        <mxCell id="vWxWDQfy94Ryybp1UH_U-62" value="1" style="resizable=0;html=1;whiteSpace=wrap;align=right;verticalAlign=bottom;" connectable="0" vertex="1" parent="vWxWDQfy94Ryybp1UH_U-61">
          <mxGeometry x="1" relative="1" as="geometry" />
        </mxCell>
        <mxCell id="vWxWDQfy94Ryybp1UH_U-66" value="" style="endArrow=none;html=1;rounded=0;exitX=1;exitY=0.5;exitDx=0;exitDy=0;entryX=0;entryY=0.5;entryDx=0;entryDy=0;" edge="1" parent="1" source="vWxWDQfy94Ryybp1UH_U-53" target="vWxWDQfy94Ryybp1UH_U-52">
          <mxGeometry relative="1" as="geometry">
            <mxPoint x="230" y="518" as="sourcePoint" />
            <mxPoint x="260" y="518" as="targetPoint" />
          </mxGeometry>
        </mxCell>
        <mxCell id="vWxWDQfy94Ryybp1UH_U-67" value="1" style="resizable=0;html=1;whiteSpace=wrap;align=right;verticalAlign=bottom;" connectable="0" vertex="1" parent="vWxWDQfy94Ryybp1UH_U-66">
          <mxGeometry x="1" relative="1" as="geometry" />
        </mxCell>
        <mxCell id="vWxWDQfy94Ryybp1UH_U-68" value="&lt;font style=&quot;font-size: 20px;&quot;&gt;&lt;b&gt;A&lt;/b&gt;&lt;/font&gt;" style="rounded=0;whiteSpace=wrap;html=1;fillColor=#d5e8d4;strokeColor=#82b366;" vertex="1" parent="1">
          <mxGeometry x="391" y="655" width="50" height="50" as="geometry" />
        </mxCell>
        <mxCell id="vWxWDQfy94Ryybp1UH_U-69" value="&lt;span style=&quot;font-size: 20px;&quot;&gt;&lt;b&gt;B&lt;/b&gt;&lt;/span&gt;" style="rounded=0;whiteSpace=wrap;html=1;fillColor=#f8cecc;strokeColor=#b85450;" vertex="1" parent="1">
          <mxGeometry x="581" y="655" width="50" height="50" as="geometry" />
        </mxCell>
        <mxCell id="vWxWDQfy94Ryybp1UH_U-70" value="&lt;font style=&quot;font-size: 20px;&quot;&gt;&lt;b&gt;R&lt;/b&gt;&lt;/font&gt;" style="shape=rhombus;perimeter=rhombusPerimeter;whiteSpace=wrap;html=1;align=center;fillColor=#f5f5f5;strokeColor=#666666;fontColor=#333333;" vertex="1" parent="1">
          <mxGeometry x="481" y="650" width="70" height="60" as="geometry" />
        </mxCell>
        <mxCell id="vWxWDQfy94Ryybp1UH_U-71" value="&lt;font style=&quot;font-size: 14px;&quot;&gt;&lt;b&gt;&lt;span style=&quot;border-color: var(--border-color);&quot;&gt;&lt;span style=&quot;border-color: var(--border-color);&quot;&gt;&lt;font style=&quot;border-color: var(--border-color);&quot; color=&quot;#9933ff&quot;&gt;R = &lt;u style=&quot;&quot;&gt;a0 &lt;/u&gt;+ b0 + ...&lt;br&gt;&lt;span style=&quot;white-space: pre;&quot;&gt;&#x9;&lt;/span&gt;C.Aj: b0&lt;br&gt;&lt;/font&gt;&lt;/span&gt;&lt;font style=&quot;border-color: var(--border-color);&quot; color=&quot;#9933ff&quot;&gt;&lt;font style=&quot;border-color: var(--border-color);&quot;&gt;&lt;span style=&quot;white-space: pre;&quot;&gt;&#x9;&lt;/span&gt;NotNull: b0&lt;/font&gt;&lt;/font&gt;&lt;/span&gt;&lt;span style=&quot;border-color: var(--border-color);&quot;&gt;&lt;font style=&quot;border-color: var(--border-color); font-size: 14px;&quot; color=&quot;#9933ff&quot;&gt;&lt;span style=&quot;border-color: var(--border-color);&quot;&gt;&lt;br style=&quot;border-color: var(--border-color);&quot;&gt;&lt;/span&gt;&lt;/font&gt;&lt;/span&gt;&lt;/b&gt;&lt;font color=&quot;#9933ff&quot; style=&quot;font-weight: bold; font-size: 14px;&quot;&gt;&lt;font style=&quot;font-size: 14px;&quot;&gt;&lt;br&gt;&lt;/font&gt;&lt;/font&gt;&lt;/font&gt;&lt;span style=&quot;font-size: 14px;&quot;&gt;&lt;b&gt;&lt;br&gt;&lt;/b&gt;&lt;/span&gt;" style="text;strokeColor=none;fillColor=none;align=left;verticalAlign=middle;spacingLeft=4;spacingRight=4;overflow=hidden;points=[[0,0.5],[1,0.5]];portConstraint=eastwest;rotatable=0;whiteSpace=wrap;html=1;" vertex="1" parent="1">
          <mxGeometry x="392" y="724" width="159" height="56" as="geometry" />
        </mxCell>
        <mxCell id="vWxWDQfy94Ryybp1UH_U-78" value="" style="shape=link;html=1;rounded=0;entryX=0;entryY=0.5;entryDx=0;entryDy=0;exitX=1;exitY=0.5;exitDx=0;exitDy=0;" edge="1" parent="1" source="vWxWDQfy94Ryybp1UH_U-68" target="vWxWDQfy94Ryybp1UH_U-70">
          <mxGeometry relative="1" as="geometry">
            <mxPoint x="450" y="523" as="sourcePoint" />
            <mxPoint x="490" y="523" as="targetPoint" />
          </mxGeometry>
        </mxCell>
        <mxCell id="vWxWDQfy94Ryybp1UH_U-79" value="1" style="resizable=0;html=1;whiteSpace=wrap;align=right;verticalAlign=bottom;" connectable="0" vertex="1" parent="vWxWDQfy94Ryybp1UH_U-78">
          <mxGeometry x="1" relative="1" as="geometry" />
        </mxCell>
        <mxCell id="vWxWDQfy94Ryybp1UH_U-80" value="" style="shape=link;html=1;rounded=0;entryX=0;entryY=0.5;entryDx=0;entryDy=0;exitX=1;exitY=0.5;exitDx=0;exitDy=0;" edge="1" parent="1" source="vWxWDQfy94Ryybp1UH_U-70" target="vWxWDQfy94Ryybp1UH_U-69">
          <mxGeometry relative="1" as="geometry">
            <mxPoint x="451" y="690" as="sourcePoint" />
            <mxPoint x="491" y="690" as="targetPoint" />
          </mxGeometry>
        </mxCell>
        <mxCell id="vWxWDQfy94Ryybp1UH_U-81" value="1" style="resizable=0;html=1;whiteSpace=wrap;align=right;verticalAlign=bottom;" connectable="0" vertex="1" parent="vWxWDQfy94Ryybp1UH_U-80">
          <mxGeometry x="1" relative="1" as="geometry" />
        </mxCell>
      </root>
    </mxGraphModel>
  </diagram>
</mxfile>
